<?xml version="1.0" standalone="no"?>
<!DOCTYPE svg PUBLIC "-//W3C//DTD SVG 20010904//EN"
 "http://www.w3.org/TR/2001/REC-SVG-20010904/DTD/svg10.dtd">
<svg version="1.0" xmlns="http://www.w3.org/2000/svg"
 width="763.000000pt" height="763.000000pt" viewBox="0 0 763.000000 763.000000"
 preserveAspectRatio="xMidYMid meet">
<metadata>
Created by potrace 1.14, written by Peter Selinger 2001-2017
</metadata>
<g transform="translate(0.000000,763.000000) scale(0.100000,-0.100000)"
fill="#000000" stroke="none">
<path d="M2768 7590 c-21 -4 -57 -15 -80 -25 -58 -26 -239 -138 -313 -194 -94
-73 -114 -90 -221 -196 -167 -165 -270 -297 -406 -517 -63 -103 -152 -297
-192 -420 -41 -124 -91 -343 -101 -441 -26 -252 -26 -572 0 -777 2 -19 7 -57
10 -85 25 -198 79 -473 101 -517 20 -39 58 -61 109 -62 53 -1 80 21 132 109
108 179 292 441 428 605 201 244 606 602 960 848 66 46 129 63 186 51 20 -5
101 -40 180 -78 99 -49 156 -71 181 -71 35 0 170 63 272 128 29 18 59 26 106
30 63 4 68 2 163 -47 383 -200 778 -539 1146 -986 46 -55 90 -109 99 -120 49
-59 208 -277 275 -377 17 -27 47 -55 66 -64 58 -28 135 -1 160 54 10 21 46
168 57 232 2 14 11 59 19 100 14 74 19 108 30 205 4 28 8 61 10 75 26 172 26
608 0 805 -2 17 -7 50 -9 75 -3 25 -8 54 -10 65 -2 11 -12 55 -21 98 -58 278
-161 509 -327 733 -108 145 -251 289 -438 438 -9 6 -38 27 -65 46 -28 18 -52
36 -55 39 -3 3 -14 11 -25 18 -11 7 -61 37 -111 67 -50 31 -122 70 -160 88
-62 29 -78 33 -155 33 -55 0 -97 -6 -115 -15 -30 -15 -145 -90 -154 -101 -3
-3 -66 -50 -140 -105 -74 -55 -242 -180 -373 -278 -131 -97 -242 -176 -247
-174 -7 2 -183 153 -379 324 -20 17 -79 69 -131 114 -52 45 -108 94 -125 109
-86 75 -143 120 -170 134 -42 21 -123 34 -167 27z"/>
<path d="M3653 5798 c-74 -11 -230 -62 -365 -119 -393 -167 -705 -409 -1030
-799 -218 -261 -488 -666 -522 -781 -31 -102 -13 -191 60 -315 26 -43 52 -88
58 -99 64 -114 141 -236 159 -252 31 -29 84 -42 127 -30 45 11 51 17 116 103
54 71 165 189 234 249 92 79 243 161 413 222 l102 38 765 0 c847 0 788 4 955
-66 201 -86 471 -302 599 -482 64 -90 116 -116 191 -96 54 15 79 48 201 261
121 211 133 238 138 322 7 101 -22 173 -156 386 -166 264 -352 495 -588 730
-310 308 -638 515 -1039 654 -209 73 -308 91 -418 74z"/>
<path d="M3748 3895 c-2 -2 -57 -6 -123 -10 -66 -3 -133 -8 -150 -11 -16 -2
-50 -6 -75 -9 -25 -2 -56 -7 -70 -9 -14 -3 -42 -8 -63 -11 -97 -13 -290 -59
-347 -82 -8 -3 -19 -7 -25 -8 -29 -7 -212 -85 -295 -126 -114 -56 -306 -168
-349 -205 -36 -30 -51 -55 -62 -102 -16 -73 -34 -48 634 -931 200 -264 369
-518 531 -796 64 -110 120 -207 125 -215 6 -8 38 -63 72 -122 34 -59 70 -116
80 -127 10 -10 16 -21 14 -23 -2 -2 5 -5 17 -5 12 -1 24 -6 27 -11 7 -10 111
-10 111 1 0 4 6 7 13 7 8 0 22 9 32 20 10 11 23 17 29 13 6 -3 8 -3 4 2 -10
10 31 67 43 60 5 -4 6 0 4 7 -3 8 2 23 12 33 10 11 31 38 48 60 16 22 35 47
42 55 57 69 178 230 190 254 15 29 14 102 -2 181 -8 40 -42 222 -49 260 -3 17
-10 52 -15 80 -9 49 -1 85 19 85 5 0 37 13 72 30 35 16 155 70 267 120 308
137 484 253 677 445 148 148 195 244 188 390 -9 184 -179 369 -473 516 -90 45
-281 115 -340 125 -14 3 -57 11 -96 19 -38 7 -99 16 -135 20 -36 3 -85 8 -110
11 -50 6 -467 14 -472 9z"/>
<path d="M3205 1350 c6 -10 0 -12 -24 -8 -17 2 -31 1 -31 -3 0 -5 -7 -6 -15
-3 -8 4 -22 1 -29 -5 -11 -9 -15 -9 -19 1 -4 10 -6 10 -6 1 -1 -7 -14 -13 -29
-13 -15 0 -34 -6 -41 -12 -11 -10 -13 -10 -7 0 4 6 2 12 -3 12 -6 0 -11 -4
-11 -10 0 -5 -7 -6 -17 -3 -9 4 -14 2 -11 -3 4 -5 -15 -9 -43 -8 -38 0 -46 -2
-38 -12 7 -8 6 -14 -2 -20 -7 -4 -9 -3 -6 3 12 19 -25 24 -51 7 -13 -9 -22
-12 -18 -6 3 6 0 9 -6 8 -43 -9 -74 -21 -80 -30 -5 -8 -8 -7 -8 2 0 7 -8 4
-21 -9 -16 -16 -23 -18 -35 -8 -11 9 -14 9 -14 -1 0 -8 -8 -10 -21 -7 -15 4
-19 2 -15 -9 3 -8 1 -14 -4 -14 -6 0 -10 6 -10 13 0 6 -5 4 -11 -6 -8 -14 -14
-16 -25 -6 -11 9 -14 8 -14 -5 0 -10 -4 -15 -8 -12 -5 3 -21 -2 -36 -10 -16
-7 -34 -14 -42 -14 -7 0 -16 -5 -20 -12 -5 -7 -3 -8 6 -3 8 5 11 4 7 -2 -3 -5
-16 -9 -28 -8 -13 1 -34 -11 -52 -29 -16 -17 -24 -23 -17 -13 11 15 10 17 -2
12 -9 -4 -21 -16 -27 -28 -8 -16 -10 -17 -6 -3 5 16 3 17 -10 6 -8 -7 -12 -16
-9 -21 3 -5 -2 -9 -11 -9 -10 0 -13 -5 -9 -12 5 -8 2 -9 -11 -4 -15 5 -16 4
-6 -8 9 -11 9 -14 -1 -12 -7 0 -14 -3 -15 -9 0 -5 3 -9 9 -7 5 1 7 -2 3 -7 -3
-6 -12 -8 -20 -4 -11 4 -13 1 -8 -13 4 -11 3 -15 -4 -11 -15 10 -34 -38 -20
-52 8 -8 7 -11 -3 -11 -12 0 -13 -2 -1 -9 7 -5 9 -11 3 -14 -10 -7 8 -77 20
-77 5 0 8 -4 8 -10 0 -27 73 -82 115 -87 28 -2 56 7 50 17 -3 4 3 7 12 6 10 0
18 6 18 14 0 8 8 15 17 15 10 0 23 6 30 14 11 12 10 12 -2 6 -13 -8 -13 -6 -2
7 8 10 20 14 29 11 9 -4 14 -2 10 3 -3 6 3 15 13 22 16 10 18 9 14 -6 -5 -15
-4 -14 10 2 8 10 13 23 9 29 -3 6 -1 7 6 3 6 -4 9 -12 5 -17 -5 -8 9 -1 80 42
10 6 16 7 12 1 -7 -11 49 -11 60 1 4 4 14 -2 21 -13 8 -11 19 -18 24 -15 5 3
6 0 4 -7 -4 -9 5 -19 22 -26 26 -10 26 -11 3 -6 -18 4 -21 3 -11 -4 7 -5 9
-12 5 -14 -5 -3 -4 -3 3 -2 18 4 63 -20 63 -34 0 -7 5 -10 10 -7 6 3 10 1 10
-5 0 -15 -26 -41 -34 -33 -3 4 -6 2 -6 -4 0 -6 -8 -10 -17 -9 -10 0 -17 -4
-16 -10 1 -7 -6 -10 -18 -7 -12 4 -25 0 -30 -8 -7 -11 -9 -11 -9 -1 0 10 -5
10 -20 2 -11 -6 -20 -8 -20 -4 0 4 -10 -1 -22 -12 -12 -10 -19 -14 -15 -8 3 6
0 11 -8 11 -8 0 -12 -4 -9 -9 3 -4 -5 -8 -16 -8 -16 0 -20 -4 -16 -16 5 -12 2
-15 -9 -10 -9 3 -13 2 -10 -4 3 -6 13 -10 21 -10 8 0 13 -3 13 -7 -3 -20 2
-34 10 -28 5 3 12 1 16 -5 4 -6 11 -7 17 -4 6 4 14 0 19 -7 7 -12 9 -11 9 1 0
11 2 12 8 3 5 -7 20 -14 35 -15 15 -1 27 -7 27 -12 0 -6 5 -5 12 2 7 7 17 12
22 12 6 0 4 -5 -4 -10 -10 -6 -11 -10 -2 -10 21 0 26 -2 46 -12 13 -7 16 -7
12 1 -4 6 -3 11 3 11 5 0 11 -4 13 -10 2 -5 29 -11 61 -12 31 -1 57 -7 57 -12
0 -6 5 -5 12 2 7 7 17 12 22 12 6 0 4 -5 -4 -10 -12 -8 -11 -10 8 -11 31 -2
35 -3 51 -13 11 -7 13 -5 8 10 -5 14 -2 12 12 -6 16 -21 22 -23 33 -12 11 11
9 12 -7 7 -16 -5 -17 -5 -5 3 10 8 18 8 27 0 8 -6 30 -12 51 -12 20 -1 42 -5
49 -9 6 -4 15 -3 18 3 5 8 11 7 21 -1 12 -10 17 -9 27 1 10 10 9 12 -5 7 -25
-9 -22 0 3 14 15 8 19 8 15 0 -4 -6 -2 -11 4 -11 6 0 9 -4 6 -8 -3 -5 1 -9 9
-9 8 0 12 4 9 9 -3 4 2 8 11 8 9 0 14 -4 11 -9 -3 -4 5 -8 17 -7 14 1 22 7 21
19 -1 9 2 14 7 11 5 -3 9 -12 9 -21 0 -14 3 -14 20 2 11 10 20 14 20 9 0 -5 5
-2 11 6 9 12 10 12 5 -4 -5 -14 -2 -17 10 -12 8 3 27 6 40 6 14 0 23 4 20 8
-3 5 1 9 9 9 8 0 15 -4 15 -8 0 -6 29 -5 38 1 2 3 7 4 39 15 12 4 24 14 27 22
3 8 10 11 16 8 5 -3 10 -1 10 4 0 6 6 10 13 8 7 -1 11 6 9 18 -2 13 0 16 5 8
11 -16 43 -10 58 11 10 13 14 14 18 4 4 -11 6 -11 6 0 1 7 5 10 11 7 5 -3 7 0
4 9 -4 11 0 14 14 11 11 -2 23 3 26 11 3 8 12 14 21 14 8 0 15 5 15 10 0 9
-15 14 -33 11 -5 -1 -6 3 -2 9 4 6 16 5 35 -5 26 -14 29 -14 24 0 -4 8 -10 15
-15 15 -5 0 -9 7 -9 16 0 11 -6 14 -22 9 -13 -3 -18 -3 -12 2 16 12 -27 53
-57 53 -5 0 -7 5 -4 10 9 14 -8 12 -25 -2 -8 -7 -6 -3 4 10 17 19 17 22 3 22
-9 0 -19 5 -23 12 -5 7 -3 8 5 3 10 -6 11 -3 2 13 -6 11 -20 24 -31 27 -27 9
-25 24 3 19 l22 -5 -22 10 c-13 6 -23 15 -23 21 0 6 -4 8 -10 5 -5 -3 -10 -2
-10 4 0 6 -7 8 -15 5 -8 -4 -12 -11 -8 -18 4 -6 -2 -4 -12 4 -17 14 -18 13
-12 -4 7 -16 5 -17 -9 -5 -14 11 -18 11 -30 -5 -7 -11 -20 -16 -29 -13 -8 4
-15 3 -15 -1 0 -4 -8 -9 -17 -10 -37 -4 -53 -8 -60 -17 -4 -4 -2 -5 6 0 9 5
12 4 8 -2 -3 -5 -22 -9 -41 -8 -20 1 -33 -2 -30 -6 3 -5 -11 -9 -31 -9 -26 0
-34 3 -29 13 4 7 3 9 -2 4 -5 -5 -9 -14 -9 -19 0 -6 -6 -13 -12 -15 -7 -3 -13
2 -13 11 0 8 -4 17 -9 20 -5 4 -7 -4 -4 -16 3 -17 2 -19 -5 -9 -7 9 -11 10
-17 2 -5 -9 -10 -9 -21 0 -7 6 -11 16 -7 23 4 6 -1 5 -10 -3 -10 -8 -20 -11
-24 -7 -3 3 0 6 8 6 10 1 9 4 -4 11 -10 6 -14 15 -10 22 4 7 -1 6 -10 -2 -10
-8 -20 -11 -24 -7 -3 3 -1 6 4 6 6 0 10 8 8 18 -1 10 -11 17 -22 16 -15 0 -19
5 -15 18 2 10 9 15 15 11 6 -3 7 -1 3 6 -4 6 -11 9 -16 6 -4 -3 -16 -2 -25 1
-13 5 -14 8 -3 15 10 7 10 9 1 9 -7 0 -13 8 -13 18 0 19 53 47 70 37 5 -3 10
2 11 12 0 10 3 13 6 6 2 -7 9 -13 14 -13 6 0 7 5 4 10 -3 6 -2 10 4 10 5 0 11
-5 13 -11 2 -5 11 -7 21 -4 13 5 14 11 7 25 -7 13 -7 21 0 25 6 4 10 3 9 -2
-4 -21 2 -34 13 -27 7 4 8 3 4 -4 -9 -14 3 -15 24 -2 10 6 21 4 34 -8 18 -16
18 -16 6 8 -10 21 -10 23 1 13 16 -16 33 -17 23 -1 -4 7 -3 8 5 4 9 -6 9 -11
-1 -24 -12 -14 -10 -14 10 -3 12 7 20 17 16 23 -4 6 -3 8 4 4 6 -3 9 -15 7
-26 -2 -12 0 -18 6 -15 5 4 7 11 4 16 -4 5 -1 9 5 9 6 0 8 4 5 10 -3 5 0 7 8
5 9 -4 13 3 11 24 -2 35 -12 53 -24 46 -5 -3 -11 -1 -15 5 -3 5 2 10 11 10 16
0 16 1 2 13 -9 6 -18 21 -20 32 -2 11 -10 19 -19 17 -9 -1 -16 4 -16 13 0 8 4
12 9 9 4 -3 4 4 0 15 -4 11 -11 20 -17 21 -5 1 -16 12 -23 26 -8 15 -18 22
-25 17 -8 -5 -8 -2 1 9 10 13 10 17 -3 22 -9 3 -13 2 -10 -4 3 -6 1 -10 -4
-10 -6 0 -11 9 -11 19 0 11 -5 23 -12 27 -6 4 -8 3 -5 -3 3 -5 0 -10 -7 -10
-8 0 -12 7 -9 15 5 12 2 12 -15 3 -15 -8 -23 -8 -28 0 -5 8 -13 4 -26 -12 -10
-13 -16 -17 -12 -8 3 10 0 20 -7 25 -8 5 -10 3 -4 -6z m-73 -34 c7 4 8 2 4 -5
-9 -13 -26 -5 -25 12 0 9 2 8 6 -1 2 -6 10 -9 15 -6z m42 -8 c-3 -4 -9 -8 -15
-8 -5 0 -9 4 -9 8 0 5 7 9 15 9 8 0 12 -4 9 -9z m56 -18 c0 -5 -2 -10 -4 -10
-3 0 -8 5 -11 10 -3 6 -1 10 4 10 6 0 11 -4 11 -10z m35 0 c3 -5 1 -10 -4 -10
-6 0 -11 5 -11 10 0 6 2 10 4 10 3 0 8 -4 11 -10z m-140 -9 c3 -5 2 -12 -3
-15 -5 -3 -9 1 -9 9 0 17 3 19 12 6z m-265 -5 c0 -2 -8 -10 -17 -17 -16 -13
-17 -12 -4 4 13 16 21 21 21 13z m310 -6 c0 -5 -5 -10 -11 -10 -5 0 -7 5 -4
10 3 6 8 10 11 10 2 0 4 -4 4 -10z m-390 -15 c-7 -8 -17 -15 -23 -15 -6 0 -2
7 9 15 25 19 30 19 14 0z m147 -20 c0 -8 -4 -12 -9 -9 -5 3 -6 10 -3 15 9 13
12 11 12 -6z m420 -20 c0 -8 -4 -12 -9 -9 -5 3 -6 10 -3 15 9 13 12 11 12 -6z
m-437 1 c0 -3 -4 -8 -10 -11 -5 -3 -10 -1 -10 4 0 6 5 11 10 11 6 0 10 -2 10
-4z m160 -6 c0 -5 -2 -10 -4 -10 -3 0 -8 5 -11 10 -3 6 -1 10 4 10 6 0 11 -4
11 -10z m-300 -16 c0 -8 -19 -13 -24 -6 -3 5 1 9 9 9 8 0 15 -2 15 -3z m204
-2 c3 -5 -1 -9 -9 -9 -8 0 -12 4 -9 9 3 4 7 8 9 8 2 0 6 -4 9 -8z m156 2 c0
-8 -19 -13 -24 -6 -3 5 1 9 9 9 8 0 15 -2 15 -3z m56 -9 c-1 -8 -5 -17 -8 -21
-5 -4 -4 16 1 34 3 9 9 -1 7 -13z m-596 -15 c0 -5 -5 -10 -11 -10 -5 0 -7 5
-4 10 3 6 8 10 11 10 2 0 4 -4 4 -10z m40 0 c0 -5 -5 -10 -11 -10 -5 0 -7 5
-4 10 3 6 8 10 11 10 2 0 4 -4 4 -10z m400 6 c0 -3 -4 -8 -10 -11 -5 -3 -10
-1 -10 4 0 6 5 11 10 11 6 0 10 -2 10 -4z m196 -22 c1 -9 0 -13 -4 -10 -3 4
-7 14 -8 22 -1 9 0 13 4 10 3 -4 7 -14 8 -22z m44 20 c0 -8 -19 -13 -24 -6 -3
5 1 9 9 9 8 0 15 -2 15 -3z m-467 -19 c-3 -9 -8 -14 -10 -11 -3 3 -2 9 2 15 9
16 15 13 8 -4z m-36 -10 c0 -8 -4 -12 -9 -9 -5 3 -6 10 -3 15 9 13 12 11 12
-6z m78 5 c3 -5 1 -10 -4 -10 -6 0 -11 5 -11 10 0 6 2 10 4 10 3 0 8 -4 11
-10z m282 -5 c0 -8 -4 -12 -9 -9 -5 3 -6 10 -3 15 9 13 12 11 12 -6z m-497 -9
c0 -3 -4 -8 -10 -11 -5 -3 -10 -1 -10 4 0 6 5 11 10 11 6 0 10 -2 10 -4z m316
-22 c1 -9 0 -13 -4 -10 -3 4 -7 14 -8 22 -1 9 0 13 4 10 3 -4 7 -14 8 -22z
m139 17 c-9 -8 -36 -10 -30 -2 2 4 11 8 20 8 8 0 13 -3 10 -6z m225 3 c0 -8
-19 -13 -24 -6 -3 5 1 9 9 9 8 0 15 -2 15 -3z m44 -2 c3 -5 -1 -9 -9 -9 -8 0
-12 4 -9 9 3 4 7 8 9 8 2 0 6 -4 9 -8z m32 -7 c-1 -8 -5 -17 -8 -21 -5 -4 -4
16 1 34 3 9 9 -1 7 -13z m-861 -15 c3 -5 1 -10 -4 -10 -6 0 -11 5 -11 10 0 6
2 10 4 10 3 0 8 -4 11 -10z m261 -16 c1 -9 0 -13 -4 -10 -3 4 -7 14 -8 22 -1
9 0 13 4 10 3 -4 7 -14 8 -22z m80 0 c1 -9 0 -13 -4 -10 -3 4 -7 14 -8 22 -1
9 0 13 4 10 3 -4 7 -14 8 -22z m-156 -4 c0 -5 -2 -10 -4 -10 -3 0 -8 5 -11 10
-3 6 -1 10 4 10 6 0 11 -4 11 -10z m316 -2 c3 -4 -1 -5 -10 -4 -8 1 -18 5 -22
8 -3 4 1 5 10 4 8 -1 18 -5 22 -8z m119 3 c-9 -8 -36 -10 -30 -2 2 4 11 8 20
8 8 0 13 -3 10 -6z m49 1 c3 -5 -1 -9 -9 -9 -8 0 -12 4 -9 9 3 4 7 8 9 8 2 0
6 -4 9 -8z m171 -11 c3 -5 2 -12 -3 -15 -5 -3 -9 1 -9 9 0 17 3 19 12 6z m120
0 c3 -5 2 -12 -3 -15 -5 -3 -9 1 -9 9 0 17 3 19 12 6z m-579 -16 c-1 -8 -5
-17 -8 -21 -5 -4 -4 16 1 34 3 9 9 -1 7 -13z m153 1 c9 -11 9 -16 -1 -22 -7
-4 -10 -4 -6 1 4 4 3 14 -3 22 -6 7 -9 13 -6 13 2 0 10 -6 16 -14z m-669 -16
c0 -5 -5 -10 -11 -10 -5 0 -7 5 -4 10 3 6 8 10 11 10 2 0 4 -4 4 -10z m155 0
c3 -5 1 -10 -4 -10 -6 0 -11 5 -11 10 0 6 2 10 4 10 3 0 8 -4 11 -10z m120 1
c-9 -8 -36 -10 -30 -2 2 4 11 8 20 8 8 0 13 -3 10 -6z m121 -17 c1 -9 0 -13
-4 -10 -3 4 -7 14 -8 22 -1 9 0 13 4 10 3 -4 7 -14 8 -22z m40 11 c-1 -8 -5
-17 -8 -21 -5 -4 -4 16 1 34 3 9 9 -1 7 -13z m-436 -35 c0 -5 -5 -10 -11 -10
-5 0 -7 5 -4 10 3 6 8 10 11 10 2 0 4 -4 4 -10z m240 0 c0 -5 -5 -10 -11 -10
-5 0 -7 5 -4 10 3 6 8 10 11 10 2 0 4 -4 4 -10z m276 -16 c1 -9 0 -13 -4 -10
-3 4 -7 14 -8 22 -1 9 0 13 4 10 3 -4 7 -14 8 -22z m160 0 c1 -9 0 -13 -4 -10
-3 4 -7 14 -8 22 -1 9 0 13 4 10 3 -4 7 -14 8 -22z m-316 -4 c0 -5 -5 -10 -11
-10 -5 0 -7 5 -4 10 3 6 8 10 11 10 2 0 4 -4 4 -10z m116 -5 c-1 -8 -5 -17 -8
-21 -5 -4 -4 16 1 34 3 9 9 -1 7 -13z m-476 -9 c0 -3 -4 -8 -10 -11 -5 -3 -10
-1 -10 4 0 6 5 11 10 11 6 0 10 -2 10 -4z m316 -11 c-1 -8 -5 -17 -8 -21 -5
-4 -4 16 1 34 3 9 9 -1 7 -13z m284 9 c0 -8 -19 -13 -24 -6 -3 5 1 9 9 9 8 0
15 -2 15 -3z m50 0 c0 -8 -19 -13 -24 -6 -3 5 1 9 9 9 8 0 15 -2 15 -3z m-545
-24 c3 -6 -1 -7 -9 -4 -18 7 -21 14 -7 14 6 0 13 -4 16 -10z m-265 -4 c0 -2
-8 -10 -17 -17 -16 -13 -17 -12 -4 4 13 16 21 21 21 13z m315 -16 c3 -5 1 -10
-4 -10 -6 0 -11 5 -11 10 0 6 2 10 4 10 3 0 8 -4 11 -10z m81 -19 c0 -17 -3
-28 -6 -26 -5 3 -6 38 -1 53 4 10 7 -3 7 -27z m119 20 c3 -5 2 -12 -3 -15 -5
-3 -9 1 -9 9 0 17 3 19 12 6z m-504 -28 c13 -16 12 -17 -3 -4 -17 13 -22 21
-14 21 2 0 10 -8 17 -17z m305 -15 c3 -4 -1 -5 -10 -4 -8 1 -18 5 -22 8 -3 4
1 5 10 4 8 -1 18 -5 22 -8z m164 -4 c0 -8 -5 -12 -10 -9 -6 4 -8 11 -5 16 9
14 15 11 15 -7z m60 6 c0 -5 -5 -10 -11 -10 -5 0 -7 5 -4 10 3 6 8 10 11 10 2
0 4 -4 4 -10z m76 -2 c3 -4 -1 -5 -10 -4 -8 1 -18 5 -22 8 -3 4 1 5 10 4 8 -1
18 -5 22 -8z m140 -14 c1 -9 0 -13 -4 -10 -3 4 -7 14 -8 22 -1 9 0 13 4 10 3
-4 7 -14 8 -22z m160 0 c1 -9 0 -13 -4 -10 -3 4 -7 14 -8 22 -1 9 0 13 4 10 3
-4 7 -14 8 -22z m-701 7 c3 -5 2 -12 -3 -15 -5 -3 -9 1 -9 9 0 17 3 19 12 6z
m774 -14 c-2 -1 -11 -8 -21 -15 -12 -10 -18 -10 -24 -1 -4 7 -3 9 4 5 6 -3 13
-2 17 4 3 5 11 10 17 10 6 0 9 -1 7 -3z m-954 -17 c3 -5 1 -10 -4 -10 -6 0
-11 5 -11 10 0 6 2 10 4 10 3 0 8 -4 11 -10z m120 0 c3 -5 1 -10 -4 -10 -6 0
-11 5 -11 10 0 6 2 10 4 10 3 0 8 -4 11 -10z m520 1 c-9 -8 -36 -10 -30 -2 2
4 11 8 20 8 8 0 13 -3 10 -6z m165 3 c0 -8 -19 -13 -24 -6 -3 5 1 9 9 9 8 0
15 -2 15 -3z m650 0 c0 -8 -19 -13 -24 -6 -3 5 1 9 9 9 8 0 15 -2 15 -3z
m-909 -21 c13 -16 12 -17 -3 -4 -10 7 -18 15 -18 17 0 8 8 3 21 -13z m-321 3
c0 -2 -7 -7 -16 -10 -8 -3 -12 -2 -9 4 6 10 25 14 25 6z m536 -11 c-1 -8 -5
-17 -8 -21 -5 -4 -4 16 1 34 3 9 9 -1 7 -13z m99 6 c3 -5 2 -12 -3 -15 -5 -3
-9 1 -9 9 0 17 3 19 12 6z m506 -4 c-6 -8 -7 -18 -3 -22 4 -5 1 -5 -6 -1 -10
6 -10 11 -1 22 6 8 14 14 16 14 3 0 0 -6 -6 -13z m-1241 -17 c0 -5 -5 -10 -11
-10 -5 0 -7 5 -4 10 3 6 8 10 11 10 2 0 4 -4 4 -10z m495 1 c-9 -8 -36 -10
-30 -2 2 4 11 8 20 8 8 0 13 -3 10 -6z m701 -6 c-1 -8 -5 -17 -8 -21 -5 -4 -4
16 1 34 3 9 9 -1 7 -13z m-1321 -15 c3 -5 1 -10 -4 -10 -6 0 -11 5 -11 10 0 6
2 10 4 10 3 0 8 -4 11 -10z m85 -20 c0 -5 -2 -10 -4 -10 -3 0 -8 5 -11 10 -3
6 -1 10 4 10 6 0 11 -4 11 -10z m40 6 c0 -3 -4 -8 -10 -11 -5 -3 -10 -1 -10 4
0 6 5 11 10 11 6 0 10 -2 10 -4z m556 -8 c3 -4 -1 -5 -10 -4 -8 1 -18 5 -22 8
-3 4 1 5 10 4 8 -1 18 -5 22 -8z m160 0 c3 -4 -1 -5 -10 -4 -8 1 -18 5 -22 8
-3 4 1 5 10 4 8 -1 18 -5 22 -8z m64 8 c0 -3 -4 -8 -10 -11 -5 -3 -10 -1 -10
4 0 6 5 11 10 11 6 0 10 -2 10 -4z m116 -8 c3 -4 -1 -5 -10 -4 -8 1 -18 5 -22
8 -3 4 1 5 10 4 8 -1 18 -5 22 -8z m164 2 c0 -5 -2 -10 -4 -10 -3 0 -8 5 -11
10 -3 6 -1 10 4 10 6 0 11 -4 11 -10z m-1165 -28 c-3 -3 -11 0 -18 7 -9 10 -8
11 6 5 10 -3 15 -9 12 -12z m702 -1 c0 -11 -5 -18 -9 -15 -4 3 -5 11 -1 19 7
21 12 19 10 -4z m57 11 c3 -5 -1 -9 -9 -9 -8 0 -12 4 -9 9 3 4 7 8 9 8 2 0 6
-4 9 -8z m462 -18 c1 -9 0 -13 -4 -10 -3 4 -7 14 -8 22 -1 9 0 13 4 10 3 -4 7
-14 8 -22z m201 7 c0 -11 -5 -18 -9 -15 -4 3 -5 11 -1 19 7 21 12 19 10 -4z
m-320 -6 c0 -8 -4 -12 -9 -9 -5 3 -6 10 -3 15 9 13 12 11 12 -6z m198 -4 c-9
-8 -36 -10 -30 -2 2 4 11 8 20 8 8 0 13 -3 10 -6z m-139 -16 c-1 -8 -5 -17 -8
-21 -5 -4 -4 16 1 34 3 9 9 -1 7 -13z m-540 -21 c1 -9 0 -13 -4 -10 -3 4 -7
14 -8 22 -1 9 0 13 4 10 3 -4 7 -14 8 -22z m280 11 c-1 -8 -5 -17 -8 -21 -5
-4 -4 16 1 34 3 9 9 -1 7 -13z m-201 -14 c3 -5 2 -12 -3 -15 -5 -3 -9 1 -9 9
0 17 3 19 12 6z m101 -3 c3 -4 -1 -5 -10 -4 -8 1 -18 5 -22 8 -3 4 1 5 10 4 8
-1 18 -5 22 -8z m140 -3 c-1 -8 -5 -17 -8 -21 -5 -4 -4 16 1 34 3 9 9 -1 7
-13z m99 6 c-9 -8 -36 -10 -30 -2 2 4 11 8 20 8 8 0 13 -3 10 -6z m325 4 c0
-7 -30 -13 -34 -7 -3 4 4 9 15 9 10 1 19 0 19 -2z m95 -4 c-9 -8 -36 -10 -30
-2 2 4 11 8 20 8 8 0 13 -3 10 -6z m81 -17 c1 -9 0 -13 -4 -10 -3 4 -7 14 -8
22 -1 9 0 13 4 10 3 -4 7 -14 8 -22z m-691 -4 c3 -6 -1 -7 -9 -4 -18 7 -21 14
-7 14 6 0 13 -4 16 -10z m280 0 c-3 -5 -12 -10 -18 -10 -7 0 -6 4 3 10 19 12
23 12 15 0z m95 6 c0 -3 -4 -8 -10 -11 -5 -3 -10 -1 -10 4 0 6 5 11 10 11 6 0
10 -2 10 -4z m-725 -26 c3 -5 1 -10 -4 -10 -6 0 -11 5 -11 10 0 6 2 10 4 10 3
0 8 -4 11 -10z m401 -5 c-1 -8 -5 -17 -8 -21 -5 -4 -4 16 1 34 3 9 9 -1 7 -13z
m94 9 c0 -8 -19 -13 -24 -6 -3 5 1 9 9 9 8 0 15 -2 15 -3z m264 -2 c3 -5 -1
-9 -9 -9 -8 0 -12 4 -9 9 3 4 7 8 9 8 2 0 6 -4 9 -8z m57 -9 c12 -16 12 -17
-2 -6 -9 7 -20 9 -24 5 -5 -4 -5 -1 -1 6 9 16 11 15 27 -5z m189 11 c0 -8 -19
-13 -24 -6 -3 5 1 9 9 9 8 0 15 -2 15 -3z m-660 -18 c0 -2 -7 -7 -16 -10 -8
-3 -12 -2 -9 4 6 10 25 14 25 6z m216 -11 c-1 -8 -5 -17 -8 -21 -5 -4 -4 16 1
34 3 9 9 -1 7 -13z m80 -11 c1 -9 0 -13 -4 -10 -3 4 -7 14 -8 22 -1 9 0 13 4
10 3 -4 7 -14 8 -22z m40 0 c1 -9 0 -13 -4 -10 -3 4 -7 14 -8 22 -1 9 0 13 4
10 3 -4 7 -14 8 -22z m200 11 c-1 -8 -5 -17 -8 -21 -5 -4 -4 16 1 34 3 9 9 -1
7 -13z m40 0 c-1 -8 -5 -17 -8 -21 -5 -4 -4 16 1 34 3 9 9 -1 7 -13z m-876
-15 c0 -5 -2 -10 -4 -10 -3 0 -8 5 -11 10 -3 6 -1 10 4 10 6 0 11 -4 11 -10z
m40 0 c0 -5 -5 -10 -11 -10 -5 0 -7 5 -4 10 3 6 8 10 11 10 2 0 4 -4 4 -10z
m115 0 c3 -5 1 -10 -4 -10 -6 0 -11 5 -11 10 0 6 2 10 4 10 3 0 8 -4 11 -10z
m105 -5 c0 -2 -9 -3 -19 -2 -11 0 -18 5 -15 9 4 6 34 0 34 -7z m-426 -13 c3
-5 -1 -9 -9 -9 -8 0 -12 4 -9 9 3 4 7 8 9 8 2 0 6 -4 9 -8z m506 -2 c0 -5 -2
-10 -4 -10 -3 0 -8 5 -11 10 -3 6 -1 10 4 10 6 0 11 -4 11 -10z m40 0 c0 -5
-2 -10 -4 -10 -3 0 -8 5 -11 10 -3 6 -1 10 4 10 6 0 11 -4 11 -10z m-260 -20
c0 -5 -5 -10 -11 -10 -5 0 -7 5 -4 10 3 6 8 10 11 10 2 0 4 -4 4 -10z m40 0
c0 -5 -2 -10 -4 -10 -3 0 -8 5 -11 10 -3 6 -1 10 4 10 6 0 11 -4 11 -10z m120
6 c0 -3 -4 -8 -10 -11 -5 -3 -10 -1 -10 4 0 6 5 11 10 11 6 0 10 -2 10 -4z
m197 -11 c0 -8 -4 -12 -9 -9 -5 3 -6 10 -3 15 9 13 12 11 12 -6z m159 0 c-1
-8 -5 -17 -8 -21 -5 -4 -4 16 1 34 3 9 9 -1 7 -13z m119 6 c3 -5 2 -12 -3 -15
-5 -3 -9 1 -9 9 0 17 3 19 12 6z m199 -11 c-6 -6 -15 -5 -24 1 -13 9 -12 10 3
5 9 -3 17 0 17 6 0 6 3 8 7 5 4 -4 2 -12 -3 -17z m-934 -24 c0 -3 -4 -8 -10
-11 -5 -3 -10 -1 -10 4 0 6 5 11 10 11 6 0 10 -2 10 -4z m455 -6 c3 -5 1 -10
-4 -10 -6 0 -11 5 -11 10 0 6 2 10 4 10 3 0 8 -4 11 -10z m285 0 c0 -5 -5 -10
-11 -10 -5 0 -7 5 -4 10 3 6 8 10 11 10 2 0 4 -4 4 -10z m-305 -28 c-3 -3 -11
0 -18 7 -9 10 -8 11 6 5 10 -3 15 -9 12 -12z m356 -15 c-10 -9 -11 -8 -5 6 3
10 9 15 12 12 3 -3 0 -11 -7 -18z"/>
<path d="M4226 1339 c-11 -16 -15 -18 -12 -6 7 24 -6 21 -37 -7 -14 -13 -28
-21 -31 -18 -3 3 -6 0 -6 -6 0 -7 -5 -12 -11 -12 -7 0 -18 -8 -26 -17 -9 -11
-12 -12 -7 -3 4 8 -3 5 -15 -7 -11 -12 -21 -28 -21 -35 0 -9 -3 -9 -11 2 -9
12 -10 11 -6 -7 3 -14 1 -20 -8 -17 -13 5 -41 -23 -32 -32 3 -4 -1 -13 -9 -21
-8 -8 -11 -19 -8 -25 4 -7 2 -8 -5 -4 -6 4 -9 12 -6 17 4 5 2 9 -4 9 -6 0 -8
-17 -6 -37 2 -21 -1 -43 -6 -50 -7 -7 -6 -14 2 -19 8 -4 9 -3 5 4 -8 13 20 12
42 -2 12 -7 12 -4 1 15 -11 21 -11 23 3 11 18 -14 79 -19 98 -7 8 5 11 4 6 -3
-3 -6 -2 -13 4 -17 5 -3 10 1 10 11 0 13 3 14 14 5 9 -7 17 -8 20 -2 3 5 1 12
-4 14 -6 3 -5 4 2 3 7 -2 12 -9 11 -15 -4 -15 10 -14 26 2 9 8 12 8 7 0 -8
-15 15 -23 37 -11 11 6 17 5 17 -3 0 -8 4 -8 15 1 10 9 15 9 15 1 0 -6 3 -10
8 -10 24 4 43 -3 39 -13 -2 -7 3 -19 12 -26 9 -8 12 -12 6 -9 -5 2 -19 -5 -29
-16 -17 -18 -17 -20 -2 -14 12 5 16 3 13 -5 -2 -7 -10 -12 -17 -10 -11 2 -11
0 -2 -11 10 -11 9 -17 -5 -28 -16 -13 -17 -12 -4 4 7 9 9 17 3 17 -16 0 -22
-26 -9 -40 9 -10 9 -11 0 -6 -8 4 -13 1 -13 -8 0 -8 -9 -21 -20 -29 -12 -8
-20 -21 -18 -28 2 -8 -4 -14 -12 -14 -8 0 -14 6 -12 13 1 8 -2 11 -8 7 -6 -4
-4 -15 6 -30 9 -14 20 -23 24 -20 5 3 11 1 14 -4 7 -11 -13 -9 -32 3 -18 11
-62 -31 -55 -53 4 -13 3 -14 -6 -1 -5 8 -13 11 -17 7 -4 -3 -1 -15 7 -24 12
-16 12 -17 -1 -6 -15 11 -43 4 -41 -11 1 -3 -2 -5 -6 -3 -5 1 -6 6 -5 12 2 5
0 6 -5 2 -11 -12 -11 -31 2 -39 6 -5 2 -8 -9 -8 -13 0 -16 -5 -11 -18 5 -14 4
-15 -6 -4 -18 17 -30 15 -22 -5 5 -12 3 -14 -7 -8 -10 6 -12 4 -7 -9 4 -9 3
-15 -2 -12 -13 9 -21 -20 -9 -32 6 -6 17 -8 26 -5 11 5 13 3 7 -7 -6 -10 -4
-12 8 -7 11 4 17 1 17 -8 0 -9 6 -12 17 -8 11 4 14 3 9 -5 -5 -8 -1 -10 10 -5
13 5 15 3 9 -8 -7 -11 -5 -11 10 1 11 9 16 10 11 3 -7 -13 10 -18 43 -14 7 2
10 -2 6 -8 -3 -6 -2 -11 4 -11 5 0 12 6 14 13 3 7 6 5 6 -5 1 -11 6 -15 16
-12 8 4 12 11 8 17 -4 6 7 1 23 -10 20 -14 35 -19 44 -13 9 6 17 4 22 -3 6 -9
8 -8 8 2 0 9 4 10 13 5 6 -5 19 -9 27 -8 8 1 21 2 28 3 7 0 10 5 7 11 -4 7 3
7 19 0 27 -10 34 -2 15 17 -8 8 -8 13 0 18 7 3 10 1 9 -6 -2 -7 5 -15 16 -17
10 -2 16 0 12 6 -3 5 5 17 18 26 13 8 27 29 31 46 4 18 11 27 17 24 7 -5 9 2
6 18 -3 18 0 25 10 24 8 0 17 6 19 14 4 13 3 13 -6 0 -8 -11 -11 -11 -11 -2 0
7 7 15 16 19 13 5 13 7 2 14 -8 5 -9 9 -2 9 7 0 15 11 18 25 4 14 11 23 16 20
6 -3 7 1 4 10 -4 8 0 23 7 32 12 14 12 16 -1 8 -13 -8 -13 -6 -1 8 7 9 17 15
21 12 4 -3 7 3 6 13 0 9 -8 20 -16 24 -12 5 -11 7 3 7 10 1 16 5 13 10 -3 4 1
17 8 27 8 11 11 25 6 34 -4 8 -2 26 4 40 8 19 18 25 41 24 17 0 36 4 44 10 12
9 13 8 6 -4 -8 -13 -7 -13 10 0 11 9 16 10 11 3 -4 -7 -3 -13 3 -13 5 0 12 6
14 13 4 9 8 8 16 -3 10 -13 11 -13 11 0 0 9 3 11 8 5 12 -16 32 -16 32 1 0 9
-5 12 -12 8 -7 -4 -8 -3 -4 5 9 14 26 5 26 -15 0 -8 5 -14 11 -14 5 0 7 5 3
12 -5 7 -3 8 7 2 21 -13 39 -14 39 -1 0 9 2 9 8 1 10 -15 64 -25 55 -10 -4 6
1 5 10 -3 9 -7 17 -10 17 -5 0 5 5 2 10 -6 8 -13 11 -13 22 -1 9 10 10 12 1 7
-9 -5 -11 -2 -7 8 3 9 11 13 18 9 6 -3 8 -3 4 2 -4 4 -3 16 3 26 7 14 6 19 -3
19 -9 0 -9 3 2 10 11 7 11 10 2 10 -9 0 -10 5 -3 18 6 11 6 24 0 33 -5 7 -9
10 -9 5 0 -4 -9 2 -21 15 -11 13 -18 18 -14 12 3 -7 1 -21 -5 -30 -10 -16 -10
-16 -6 2 3 11 1 27 -4 35 -6 10 -10 11 -10 3 0 -8 -8 -5 -20 7 -17 17 -45 25
-73 21 -4 0 -6 2 -6 6 4 22 -3 25 -17 7 -8 -10 -13 -14 -9 -7 3 7 -4 17 -16
23 -15 8 -19 9 -15 1 4 -6 2 -11 -3 -11 -6 0 -11 6 -11 14 0 8 -8 13 -17 12
-10 -2 -20 0 -23 4 -3 5 -16 10 -30 11 -14 2 -28 9 -32 14 -5 7 -14 6 -27 -2
-15 -9 -22 -10 -27 -1 -5 7 -3 8 6 3 8 -5 11 -3 8 5 -2 7 -12 14 -21 16 -9 1
-15 -1 -12 -5 2 -4 -2 -8 -10 -8 -8 0 -13 5 -12 10 2 9 -18 16 -60 20 -13 1
-23 7 -23 12 0 6 -5 3 -10 -5 -8 -12 -10 -12 -10 -1 0 10 -3 11 -14 2 -11 -9
-16 -9 -22 0 -5 8 -3 10 7 4 8 -5 11 -4 6 1 -5 5 -18 9 -30 9 -12 1 -28 5 -36
9 -11 7 -13 5 -7 -9 6 -17 5 -18 -11 -3 -20 17 -66 31 -57 17 3 -5 0 -9 -5 -9
-6 0 -11 4 -11 9 0 5 -13 8 -30 7 -16 -1 -30 3 -30 8 0 6 -5 4 -10 -4 -6 -10
-10 -11 -10 -2 0 6 -7 12 -15 12 -8 0 -15 -6 -16 -12 0 -7 -4 -5 -8 6 -7 17
-8 17 -25 -5z m-31 -19 c-3 -5 -12 -10 -18 -10 -7 0 -6 4 3 10 19 12 23 12 15
0z m90 -39 c3 -5 2 -12 -3 -15 -5 -3 -9 1 -9 9 0 17 3 19 12 6z m82 -6 c0 -8
-4 -12 -9 -9 -5 3 -6 10 -3 15 9 13 12 11 12 -6z m243 1 c0 -3 -4 -8 -10 -11
-5 -3 -10 -1 -10 4 0 6 5 11 10 11 6 0 10 -2 10 -4z m-420 -20 c0 -3 -4 -8
-10 -11 -5 -3 -10 -1 -10 4 0 6 5 11 10 11 6 0 10 -2 10 -4z m-61 -19 c8 -10
7 -14 -2 -14 -8 0 -14 6 -14 14 0 7 1 13 2 13 2 0 8 -6 14 -13z m434 -2 c-3
-9 -8 -14 -10 -11 -3 3 -2 9 2 15 9 16 15 13 8 -4z m-233 1 c0 -3 -4 -8 -10
-11 -5 -3 -10 -1 -10 4 0 6 5 11 10 11 6 0 10 -2 10 -4z m200 0 c0 -2 -7 -7
-16 -10 -8 -3 -12 -2 -9 4 6 10 25 14 25 6z m-187 -41 c-7 -21 -12 -19 -10 4
0 11 5 18 9 15 4 -3 5 -11 1 -19z m122 15 c3 -5 1 -10 -4 -10 -6 0 -11 5 -11
10 0 6 2 10 4 10 3 0 8 -4 11 -10z m160 0 c3 -5 1 -10 -4 -10 -6 0 -11 5 -11
10 0 6 2 10 4 10 3 0 8 -4 11 -10z m145 -20 c0 -5 -5 -10 -11 -10 -5 0 -7 5
-4 10 3 6 8 10 11 10 2 0 4 -4 4 -10z m-665 -12 c5 4 5 1 1 -6 -6 -10 -11 -10
-22 -1 -8 6 -14 14 -14 16 0 3 6 0 13 -6 8 -6 18 -7 22 -3z m80 -9 c3 -3 -6
-5 -19 -5 -14 1 -28 4 -31 7 -3 3 6 5 19 5 14 -1 28 -4 31 -7z m85 7 c0 -3 -4
-8 -10 -11 -5 -3 -10 -1 -10 4 0 6 5 11 10 11 6 0 10 -2 10 -4z m235 -5 c-9
-8 -36 -10 -30 -2 2 4 11 8 20 8 8 0 13 -3 10 -6z m129 1 c3 -5 -1 -9 -9 -9
-8 0 -12 4 -9 9 3 4 7 8 9 8 2 0 6 -4 9 -8z m29 -27 c4 -8 3 -16 -1 -19 -4 -3
-9 4 -9 15 -2 23 3 25 10 4z m107 11 c0 -3 -4 -8 -10 -11 -5 -3 -10 -1 -10 4
0 6 5 11 10 11 6 0 10 -2 10 -4z m-263 -21 c0 -8 -4 -12 -9 -9 -5 3 -6 10 -3
15 9 13 12 11 12 -6z m-197 -5 c0 -5 -2 -10 -4 -10 -3 0 -8 5 -11 10 -3 6 -1
10 4 10 6 0 11 -4 11 -10z m75 1 c-9 -8 -36 -10 -30 -2 2 4 11 8 20 8 8 0 13
-3 10 -6z m319 1 c3 -5 -1 -9 -9 -9 -8 0 -12 4 -9 9 3 4 7 8 9 8 2 0 6 -4 9
-8z m236 -18 c0 -8 -19 -13 -24 -6 -3 5 1 9 9 9 8 0 15 -2 15 -3z m70 0 c0 -8
-19 -13 -24 -6 -3 5 1 9 9 9 8 0 15 -2 15 -3z m-890 -20 c0 -8 -19 -13 -24 -6
-3 5 1 9 9 9 8 0 15 -2 15 -3z m105 -4 c3 -5 1 -10 -4 -10 -6 0 -11 5 -11 10
0 6 2 10 4 10 3 0 8 -4 11 -10z m80 1 c-3 -6 3 -14 12 -20 10 -6 13 -11 7 -11
-15 0 -36 25 -27 33 10 10 15 8 8 -2z m140 0 c-9 -8 -36 -10 -30 -2 2 4 11 8
20 8 8 0 13 -3 10 -6z m61 -17 c1 -9 0 -13 -4 -10 -3 4 -7 14 -8 22 -1 9 0 13
4 10 3 -4 7 -14 8 -22z m120 11 c-1 -8 -5 -17 -8 -21 -5 -4 -4 16 1 34 3 9 9
-1 7 -13z m140 3 c3 -4 -1 -5 -10 -4 -8 1 -18 5 -22 8 -3 4 1 5 10 4 8 -1 18
-5 22 -8z m-180 -23 c-1 -8 -5 -17 -8 -21 -5 -4 -4 16 1 34 3 9 9 -1 7 -13z
m160 -17 c3 -4 -1 -5 -10 -4 -8 1 -18 5 -22 8 -3 4 1 5 10 4 8 -1 18 -5 22 -8z
m144 7 c0 -7 -30 -13 -34 -7 -3 4 4 9 15 9 10 1 19 0 19 -2z m100 -5 c0 -5 -2
-10 -4 -10 -3 0 -8 5 -11 10 -3 6 -1 10 4 10 6 0 11 -4 11 -10z m-615 -20 c-3
-5 -12 -10 -18 -10 -7 0 -6 4 3 10 19 12 23 12 15 0z m91 -5 c-1 -8 -5 -17 -8
-21 -5 -4 -4 16 1 34 3 9 9 -1 7 -13z m80 -11 c1 -9 0 -13 -4 -10 -3 4 -7 14
-8 22 -1 9 0 13 4 10 3 -4 7 -14 8 -22z m41 -1 c-4 -3 -1 -13 6 -22 11 -14 10
-14 -5 -2 -16 12 -16 31 -1 31 4 0 3 -3 0 -7z m99 -5 c3 -4 -1 -5 -10 -4 -8 1
-18 5 -22 8 -3 4 1 5 10 4 8 -1 18 -5 22 -8z m301 -3 c0 -8 -4 -12 -9 -9 -5 3
-6 10 -3 15 9 13 12 11 12 -6z m38 5 c3 -5 1 -10 -4 -10 -6 0 -11 5 -11 10 0
6 2 10 4 10 3 0 8 -4 11 -10z m-638 -35 c0 -8 -4 -12 -9 -9 -5 3 -6 10 -3 15
9 13 12 11 12 -6z m293 -1 c0 -8 -19 -13 -24 -6 -3 5 1 9 9 9 8 0 15 -2 15 -3z
m-315 -33 c3 -5 2 -12 -3 -15 -5 -3 -9 1 -9 9 0 17 3 19 12 6z m140 -10 c-8
-7 -45 -9 -50 -1 -2 3 9 6 25 6 17 0 27 -2 25 -5z m121 -3 c3 -4 -1 -5 -10 -4
-8 1 -18 5 -22 8 -3 4 1 5 10 4 8 -1 18 -5 22 -8z m-61 -17 c3 -5 2 -12 -3
-15 -5 -3 -9 1 -9 9 0 17 3 19 12 6z m-218 -16 c0 -8 -4 -12 -9 -9 -5 3 -6 10
-3 15 9 13 12 11 12 -6z m328 5 c-3 -5 -12 -10 -18 -10 -7 0 -6 4 3 10 19 12
23 12 15 0z m-230 -49 c-9 -8 -36 -10 -30 -2 2 4 11 8 20 8 8 0 13 -3 10 -6z
m101 -3 c3 -4 -1 -5 -10 -4 -8 1 -18 5 -22 8 -3 4 1 5 10 4 8 -1 18 -5 22 -8z
m60 0 c3 -4 -1 -5 -10 -4 -8 1 -18 5 -22 8 -3 4 1 5 10 4 8 -1 18 -5 22 -8z
m-300 -54 c1 -9 0 -13 -4 -10 -3 4 -7 14 -8 22 -1 9 0 13 4 10 3 -4 7 -14 8
-22z m120 14 c4 -7 4 -10 -1 -6 -4 4 -15 2 -24 -5 -14 -11 -14 -10 -2 6 16 20
18 21 27 5z m128 4 c3 -5 -1 -9 -9 -9 -8 0 -12 4 -9 9 3 4 7 8 9 8 2 0 6 -4 9
-8z m-208 -27 c-1 -8 -5 -17 -8 -21 -5 -4 -4 16 1 34 3 9 9 -1 7 -13z m60 -30
c-1 -8 -5 -17 -8 -21 -5 -4 -4 16 1 34 3 9 9 -1 7 -13z m169 -5 c-3 -5 -12
-10 -18 -10 -7 0 -6 4 3 10 19 12 23 12 15 0z m-229 -25 c-1 -8 -5 -17 -8 -21
-5 -4 -4 16 1 34 3 9 9 -1 7 -13z m120 -11 c1 -9 0 -13 -4 -10 -3 4 -7 14 -8
22 -1 9 0 13 4 10 3 -4 7 -14 8 -22z m40 11 c-1 -8 -5 -17 -8 -21 -5 -4 -4 16
1 34 3 9 9 -1 7 -13z m-200 -20 c-1 -8 -5 -17 -8 -21 -5 -4 -4 16 1 34 3 9 9
-1 7 -13z m104 1 c0 -2 -6 -9 -14 -15 -11 -9 -16 -9 -22 0 -4 7 -3 9 4 5 6 -3
13 -2 17 4 6 10 15 14 15 6z m-183 -21 c0 -8 -4 -12 -9 -9 -5 3 -6 10 -3 15 9
13 12 11 12 -6z m-77 -31 c0 -8 -19 -13 -24 -6 -3 5 1 9 9 9 8 0 15 -2 15 -3z
m116 -20 c1 -9 0 -13 -4 -10 -3 4 -7 14 -8 22 -1 9 0 13 4 10 3 -4 7 -14 8
-22z m224 12 c0 -2 -8 -10 -17 -17 -16 -13 -17 -12 -4 4 13 16 21 21 21 13z
m34 -22 c3 -8 2 -12 -4 -9 -6 3 -10 10 -10 16 0 14 7 11 14 -7z m-314 -19 c0
-2 -9 -3 -19 -2 -11 0 -18 5 -15 9 4 6 34 0 34 -7z m174 7 c2 -4 -5 -9 -17 -9
-17 -2 -19 0 -7 7 18 12 18 12 24 2z m66 -7 c0 -2 -9 -3 -19 -2 -11 0 -18 5
-15 9 4 6 34 0 34 -7z m-316 -13 c3 -5 -1 -9 -9 -9 -8 0 -12 4 -9 9 3 4 7 8 9
8 2 0 6 -4 9 -8z m156 4 c0 -2 -7 -7 -16 -10 -8 -3 -12 -2 -9 4 6 10 25 14 25
6z m-105 -15 c3 -5 2 -12 -3 -15 -5 -3 -9 1 -9 9 0 17 3 19 12 6z m-125 -7 c0
-8 -19 -13 -24 -6 -3 5 1 9 9 9 8 0 15 -2 15 -3z m164 -2 c3 -5 -1 -9 -9 -9
-8 0 -12 4 -9 9 3 4 7 8 9 8 2 0 6 -4 9 -8z m86 4 c0 -3 -4 -8 -10 -11 -5 -3
-10 -1 -10 4 0 6 5 11 10 11 6 0 10 -2 10 -4z m200 -6 c0 -5 -5 -10 -11 -10
-5 0 -7 5 -4 10 3 6 8 10 11 10 2 0 4 -4 4 -10z m-65 -20 c3 -5 1 -10 -4 -10
-6 0 -11 5 -11 10 0 6 2 10 4 10 3 0 8 -4 11 -10z m76 -13 c-10 -9 -11 -8 -5
6 3 10 9 15 12 12 3 -3 0 -11 -7 -18z"/>
<path d="M4025 1270 c-3 -6 1 -7 9 -4 18 7 21 14 7 14 -6 0 -13 -4 -16 -10z"/>
<path d="M2665 1240 c-3 -6 1 -7 9 -4 18 7 21 14 7 14 -6 0 -13 -4 -16 -10z"/>
<path d="M3559 1198 c-5 -18 -6 -38 -1 -34 7 8 12 36 6 36 -2 0 -4 -1 -5 -2z"/>
<path d="M3975 1170 c-3 -5 -1 -10 4 -10 6 0 11 5 11 10 0 6 -2 10 -4 10 -3 0
-8 -4 -11 -10z"/>
<path d="M3550 1130 c0 -5 5 -10 11 -10 5 0 7 5 4 10 -3 6 -8 10 -11 10 -2 0
-4 -4 -4 -10z"/>
<path d="M3943 1113 c4 -6 2 -13 -5 -15 -8 -3 -6 -6 4 -10 17 -7 19 15 3 29
-4 4 -5 3 -2 -4z"/>
<path d="M3595 1089 c-3 -4 2 -6 10 -5 21 3 28 13 10 13 -9 0 -18 -4 -20 -8z"/>
<path d="M3854 1086 c1 -8 5 -18 8 -22 4 -3 5 1 4 10 -1 8 -5 18 -8 22 -4 3
-5 -1 -4 -10z"/>
<path d="M3515 1070 c-3 -5 -1 -10 4 -10 6 0 11 5 11 10 0 6 -2 10 -4 10 -3 0
-8 -4 -11 -10z"/>
<path d="M3675 1060 c-4 -6 -11 -7 -17 -4 -7 4 -8 2 -4 -5 6 -9 11 -9 22 0 14
11 18 19 10 19 -3 0 -8 -5 -11 -10z"/>
<path d="M3594 1052 c4 -3 14 -7 22 -8 9 -1 13 0 10 4 -4 3 -14 7 -22 8 -9 1
-13 0 -10 -4z"/>
<path d="M3734 1046 c1 -8 5 -18 8 -22 4 -3 5 1 4 10 -1 8 -5 18 -8 22 -4 3
-5 -1 -4 -10z"/>
<path d="M3774 1046 c1 -8 5 -18 8 -22 4 -3 5 1 4 10 -1 8 -5 18 -8 22 -4 3
-5 -1 -4 -10z"/>
<path d="M3894 1026 c1 -8 5 -18 8 -22 4 -3 5 1 4 10 -1 8 -5 18 -8 22 -4 3
-5 -1 -4 -10z"/>
<path d="M4094 1026 c1 -8 5 -18 8 -22 4 -3 5 1 4 10 -1 8 -5 18 -8 22 -4 3
-5 -1 -4 -10z"/>
<path d="M3534 1012 c4 -3 14 -7 22 -8 9 -1 13 0 10 4 -4 3 -14 7 -22 8 -9 1
-13 0 -10 -4z"/>
<path d="M3339 998 c-5 -18 -6 -38 -1 -34 7 8 12 36 6 36 -2 0 -4 -1 -5 -2z"/>
<path d="M3814 986 c1 -8 5 -18 8 -22 4 -3 5 1 4 10 -1 8 -5 18 -8 22 -4 3 -5
-1 -4 -10z"/>
<path d="M3990 996 c0 -2 7 -7 16 -10 8 -3 12 -2 9 4 -6 10 -25 14 -25 6z"/>
<path d="M4049 987 c6 -8 7 -18 3 -22 -4 -5 -1 -5 6 -1 10 6 10 11 1 22 -6 8
-14 14 -16 14 -3 0 0 -6 6 -13z"/>
<path d="M4253 975 c0 -8 4 -12 9 -9 5 3 6 10 3 15 -9 13 -12 11 -12 -6z"/>
<path d="M3419 978 c-5 -18 -6 -38 -1 -34 7 8 12 36 6 36 -2 0 -4 -1 -5 -2z"/>
<path d="M3619 978 c-5 -18 -6 -38 -1 -34 7 8 12 36 6 36 -2 0 -4 -1 -5 -2z"/>
<path d="M3690 969 c0 -5 5 -7 10 -4 6 3 10 8 10 11 0 2 -4 4 -10 4 -5 0 -10
-5 -10 -11z"/>
<path d="M3859 978 c-5 -18 -6 -38 -1 -34 7 8 12 36 6 36 -2 0 -4 -1 -5 -2z"/>
<path d="M3935 970 c3 -5 8 -10 11 -10 2 0 4 5 4 10 0 6 -5 10 -11 10 -5 0 -7
-4 -4 -10z"/>
<path d="M4134 966 c1 -8 5 -18 8 -22 4 -3 5 1 4 10 -1 8 -5 18 -8 22 -4 3 -5
-1 -4 -10z"/>
<path d="M4174 966 c1 -8 5 -18 8 -22 4 -3 5 1 4 10 -1 8 -5 18 -8 22 -4 3 -5
-1 -4 -10z"/>
<path d="M3195 961 c-3 -5 -2 -12 3 -15 5 -3 9 1 9 9 0 17 -3 19 -12 6z"/>
<path d="M3994 956 c1 -8 5 -18 8 -22 4 -3 5 1 4 10 -1 8 -5 18 -8 22 -4 3 -5
-1 -4 -10z"/>
<path d="M4689 943 c-13 -16 -12 -17 4 -4 9 7 17 15 17 17 0 8 -8 3 -21 -13z"/>
<path d="M4956 948 c3 -5 10 -6 15 -3 13 9 11 12 -6 12 -8 0 -12 -4 -9 -9z"/>
<path d="M3234 932 c4 -3 14 -7 22 -8 9 -1 13 0 10 4 -4 3 -14 7 -22 8 -9 1
-13 0 -10 -4z"/>
<path d="M3339 938 c-5 -18 -6 -38 -1 -34 7 8 12 36 6 36 -2 0 -4 -1 -5 -2z"/>
<path d="M3490 929 c0 -5 5 -7 10 -4 6 3 10 8 10 11 0 2 -4 4 -10 4 -5 0 -10
-5 -10 -11z"/>
<path d="M3535 929 c-3 -4 2 -6 10 -5 21 3 28 13 10 13 -9 0 -18 -4 -20 -8z"/>
<path d="M3695 931 c-3 -5 -2 -12 3 -15 5 -3 9 1 9 9 0 17 -3 19 -12 6z"/>
<path d="M3935 931 c-3 -5 -2 -12 3 -15 5 -3 9 1 9 9 0 17 -3 19 -12 6z"/>
<path d="M4053 919 c-2 -23 3 -25 10 -4 4 8 3 16 -1 19 -4 3 -9 -4 -9 -15z"/>
<path d="M4253 933 c4 -3 1 -13 -6 -22 -11 -14 -10 -14 5 -2 16 12 16 31 1 31
-4 0 -3 -3 0 -7z"/>
<path d="M4715 929 c-3 -4 2 -6 10 -5 21 3 28 13 10 13 -9 0 -18 -4 -20 -8z"/>
<path d="M3299 918 c-5 -18 -6 -38 -1 -34 7 8 12 36 6 36 -2 0 -4 -1 -5 -2z"/>
<path d="M4093 901 c0 -11 5 -18 9 -15 4 3 5 11 1 19 -7 21 -12 19 -10 -4z"/>
<path d="M3374 892 c4 -3 14 -7 22 -8 9 -1 13 0 10 4 -4 3 -14 7 -22 8 -9 1
-13 0 -10 -4z"/>
<path d="M3526 888 c3 -5 10 -6 15 -3 13 9 11 12 -6 12 -8 0 -12 -4 -9 -9z"/>
<path d="M3755 889 c-3 -4 2 -6 10 -5 21 3 28 13 10 13 -9 0 -18 -4 -20 -8z"/>
<path d="M3814 889 c-4 -7 -3 -9 4 -5 6 3 15 -2 21 -11 6 -10 11 -13 11 -7 0
20 -27 37 -36 23z"/>
<path d="M3875 889 c-3 -4 2 -6 10 -5 21 3 28 13 10 13 -9 0 -18 -4 -20 -8z"/>
<path d="M3935 889 c-3 -4 2 -6 10 -5 21 3 28 13 10 13 -9 0 -18 -4 -20 -8z"/>
<path d="M4174 892 c4 -3 14 -7 22 -8 9 -1 13 0 10 4 -4 3 -14 7 -22 8 -9 1
-13 0 -10 -4z"/>
<path d="M3454 866 c1 -8 5 -18 8 -22 4 -3 5 1 4 10 -1 8 -5 18 -8 22 -4 3 -5
-1 -4 -10z"/>
<path d="M4019 878 c-5 -18 -6 -38 -1 -34 7 8 12 36 6 36 -2 0 -4 -1 -5 -2z"/>
<path d="M4694 866 c1 -8 5 -18 8 -22 4 -3 5 1 4 10 -1 8 -5 18 -8 22 -4 3 -5
-1 -4 -10z"/>
<path d="M3295 851 c-3 -5 -2 -12 3 -15 5 -3 9 1 9 9 0 17 -3 19 -12 6z"/>
<path d="M4097 825 c-4 -8 -3 -16 1 -19 4 -3 9 4 9 15 2 23 -3 25 -10 4z"/>
<path d="M2710 815 c0 -7 30 -13 34 -7 3 4 -4 9 -15 9 -10 1 -19 0 -19 -2z"/>
<path d="M3919 803 c-12 -16 -12 -17 2 -6 9 7 20 9 24 5 5 -4 5 -1 1 6 -9 16
-11 15 -27 -5z"/>
<path d="M3976 808 c3 -5 10 -6 15 -3 13 9 11 12 -6 12 -8 0 -12 -4 -9 -9z"/>
<path d="M4014 806 c1 -8 5 -18 8 -22 4 -3 5 1 4 10 -1 8 -5 18 -8 22 -4 3 -5
-1 -4 -10z"/>
<path d="M2650 796 c0 -2 7 -7 16 -10 8 -3 12 -2 9 4 -6 10 -25 14 -25 6z"/>
<path d="M3854 786 c1 -8 5 -18 8 -22 4 -3 5 1 4 10 -1 8 -5 18 -8 22 -4 3 -5
-1 -4 -10z"/>
<path d="M4094 756 c1 -14 4 -28 7 -31 3 -3 5 6 5 19 -1 14 -4 28 -7 31 -3 3
-5 -6 -5 -19z"/>
<path d="M3909 753 c-13 -16 -12 -17 4 -4 16 13 21 21 13 21 -2 0 -10 -8 -17
-17z"/>
<path d="M3939 738 c-5 -18 -6 -38 -1 -34 7 8 12 36 6 36 -2 0 -4 -1 -5 -2z"/>
<path d="M4014 706 c1 -8 5 -18 8 -22 4 -3 5 1 4 10 -1 8 -5 18 -8 22 -4 3 -5
-1 -4 -10z"/>
<path d="M4700 676 c0 -2 8 -10 18 -17 15 -13 16 -12 3 4 -13 16 -21 21 -21
13z"/>
<path d="M3455 450 c-3 -5 -1 -10 4 -10 6 0 11 5 11 10 0 6 -2 10 -4 10 -3 0
-8 -4 -11 -10z"/>
</g>
</svg>
